<svg width="252" height="223" viewBox="0 0 252 223" fill="none" xmlns="http://www.w3.org/2000/svg">
<path d="M45.3776 2.04343V175.487C45.3776 199.956 26.126 219.899 2 220.949V47.5051C2 23.0439 21.2519 3.09326 45.3776 2.04343Z" fill="#E8FBE8" stroke="#0D986A" stroke-width="4"/>
<path fill-rule="evenodd" clip-rule="evenodd" d="M252 108.694C252 143.15 240.941 170.812 218.839 191.687C196.73 212.57 168.2 223 133.765 223H115.44C82.794 223 56.7422 196.87 56.7422 164.645V0H133.552C212.522 0 252 36.234 252 108.694ZM179.327 146.937C170.89 152.96 160.57 156.503 149.424 156.503C120.919 156.503 97.8108 133.333 97.8108 104.752C97.8108 76.17 120.919 53 149.424 53C177.928 53 201.036 76.17 201.036 104.752C201.036 117.542 196.409 129.249 188.74 138.281L210.928 160.528L201.905 169.576L179.327 146.937Z" fill="#0D986A"/>
</svg>
